M48
; DRILL file {KiCad 9.0.3} date 2026-04-12T23:49:24-0400
; FORMAT={-:-/ absolute / metric / decimal}
; #@! TF.CreationDate,2026-04-12T23:49:24-04:00
; #@! TF.GenerationSoftware,Kicad,Pcbnew,9.0.3
; #@! TF.FileFunction,Plated,1,2,PTH
FMAT,2
METRIC
; #@! TA.AperFunction,Plated,PTH,ViaDrill
T1C0.300
; #@! TA.AperFunction,Plated,PTH,ComponentDrill
T2C0.950
; #@! TA.AperFunction,Plated,PTH,ComponentDrill
T3C1.000
; #@! TA.AperFunction,Plated,PTH,ComponentDrill
T4C1.016
; #@! TA.AperFunction,Plated,PTH,ComponentDrill
T5C1.020
; #@! TA.AperFunction,Plated,PTH,ComponentDrill
T6C1.100
; #@! TA.AperFunction,Plated,PTH,ComponentDrill
T7C1.300
; #@! TA.AperFunction,Plated,PTH,ComponentDrill
T8C1.524
; #@! TA.AperFunction,Plated,PTH,ComponentDrill
T9C1.900
; #@! TA.AperFunction,Plated,PTH,ComponentDrill
T10C2.500
%
G90
G05
T1
X60.5Y-103.75
X65.2Y-94.8
X65.8Y-66.8
X66.4Y-87.8
X66.8Y-121.4
X67.0Y-109.6
X76.0Y-113.0
X76.6Y-115.0
X77.6Y-93.8
X79.0Y-93.8
X79.2Y-102.0
X79.6Y-64.8
X80.4Y-83.4
X80.6Y-93.8
X88.0Y-78.4
X88.0Y-116.6
X88.4Y-67.4
X91.4Y-45.0
X92.2Y-130.0
X92.6Y-67.4
X95.0Y-109.8
X99.4Y-109.6
X100.4Y-70.0
X106.6Y-96.8
X109.4Y-44.4
X115.0Y-118.0
X122.2Y-54.4
X133.0Y-46.4
X136.0Y-135.2
X137.4Y-80.2
X142.2Y-68.2
X142.6Y-64.825
X142.6Y-71.4
X150.25Y-69.75
X152.0Y-90.6
X152.2Y-104.6
X152.8Y-126.0
X158.2Y-65.0
X158.4Y-43.2
X158.4Y-46.6
X158.4Y-49.8
X158.4Y-53.2
X158.4Y-56.4
X158.4Y-59.6
X161.4Y-49.2
T2
X62.475Y-126.0
X62.475Y-128.5
X62.475Y-131.0
X62.5Y-73.0
X62.5Y-83.0
X62.5Y-85.5
X62.5Y-88.0
X62.5Y-90.5
X62.5Y-97.5
X62.5Y-100.0
X62.5Y-102.5
X62.5Y-105.0
X62.5Y-114.0
X62.5Y-116.5
X62.5Y-119.0
X65.0Y-73.0
X67.5Y-73.0
X70.0Y-73.0
X71.475Y-126.0
X71.475Y-128.5
X71.475Y-131.0
X71.5Y-83.0
X71.5Y-85.5
X71.5Y-88.0
X71.5Y-90.5
X71.5Y-97.5
X71.5Y-100.0
X71.5Y-102.5
X71.5Y-105.0
X71.5Y-114.0
X71.5Y-116.5
X71.5Y-119.0
X72.5Y-73.0
X75.0Y-73.0
X151.25Y-79.0
X153.75Y-79.0
X156.25Y-79.0
X158.75Y-79.0
X161.25Y-79.0
X163.75Y-79.0
T3
X69.05Y-58.15
X81.05Y-58.15
X84.22Y-88.3
X84.22Y-90.84
X84.22Y-93.38
X84.22Y-95.92
X84.22Y-98.46
X84.22Y-101.0
X84.22Y-103.54
X84.22Y-106.08
X84.22Y-108.62
X84.22Y-111.16
X84.22Y-113.7
X84.22Y-116.24
X84.22Y-118.78
X84.22Y-121.32
X84.22Y-123.86
X84.22Y-126.4
X84.22Y-128.94
X84.22Y-131.48
X84.22Y-134.02
X84.22Y-136.56
X87.0Y-43.0
X98.0Y-43.0
X102.0Y-88.3
X102.0Y-90.84
X102.0Y-93.38
X102.0Y-95.92
X102.0Y-98.46
X102.0Y-101.0
X102.0Y-103.54
X102.0Y-106.08
X102.0Y-108.62
X102.0Y-111.16
X102.0Y-113.7
X102.0Y-116.24
X102.0Y-118.78
X102.0Y-121.32
X102.0Y-123.86
X102.0Y-126.4
X102.0Y-128.94
X102.0Y-131.48
X102.0Y-134.02
X102.0Y-136.56
X104.0Y-43.0
X107.0Y-64.325
X109.5Y-64.325
X111.11Y-91.65
X111.11Y-94.19
X111.11Y-96.73
X111.11Y-99.27
X111.11Y-101.81
X111.11Y-104.35
X112.0Y-64.325
X115.0Y-43.0
X126.387Y-116.34
X126.387Y-118.88
X126.387Y-121.42
X126.387Y-123.96
X126.387Y-126.5
X126.387Y-129.04
X126.387Y-131.58
X126.387Y-134.12
X126.387Y-136.66
X128.89Y-91.65
X128.89Y-94.19
X128.89Y-96.73
X128.89Y-99.27
X128.89Y-101.81
X128.89Y-104.35
X163.725Y-54.0
X163.725Y-56.5
X163.75Y-63.25
X163.75Y-65.75
T4
X124.17Y-63.321
X126.71Y-63.321
X129.25Y-63.321
X131.79Y-63.321
X134.33Y-63.321
T5
X136.149Y-89.11
X136.149Y-91.65
X136.149Y-94.19
X136.149Y-96.73
X136.149Y-99.27
X136.149Y-101.81
X136.149Y-104.35
X136.149Y-106.89
T6
X87.34Y-57.825
X97.5Y-57.825
X103.84Y-58.325
X114.0Y-58.325
T7
X69.0Y-45.9
X75.0Y-60.1
X81.05Y-45.95
T8
X123.992Y-60.4
X127.497Y-60.4
X131.003Y-60.4
X134.508Y-60.4
T9
X90.0Y-53.0
X95.0Y-53.0
X107.0Y-53.0
X112.0Y-53.0
T10
X111.11Y-87.84
X111.11Y-108.16
X128.89Y-87.84
X128.89Y-108.16
X156.105Y-116.34
X156.105Y-136.66
M30
