%TF.GenerationSoftware,KiCad,Pcbnew,9.0.3*%
%TF.CreationDate,2026-04-12T23:49:22-04:00*%
%TF.ProjectId,Microtransat_mainboard,4d696372-6f74-4726-916e-7361745f6d61,rev?*%
%TF.SameCoordinates,Original*%
%TF.FileFunction,Soldermask,Bot*%
%TF.FilePolarity,Negative*%
%FSLAX46Y46*%
G04 Gerber Fmt 4.6, Leading zero omitted, Abs format (unit mm)*
G04 Created by KiCad (PCBNEW 9.0.3) date 2026-04-12 23:49:22*
%MOMM*%
%LPD*%
G01*
G04 APERTURE LIST*
G04 Aperture macros list*
%AMRoundRect*
0 Rectangle with rounded corners*
0 $1 Rounding radius*
0 $2 $3 $4 $5 $6 $7 $8 $9 X,Y pos of 4 corners*
0 Add a 4 corners polygon primitive as box body*
4,1,4,$2,$3,$4,$5,$6,$7,$8,$9,$2,$3,0*
0 Add four circle primitives for the rounded corners*
1,1,$1+$1,$2,$3*
1,1,$1+$1,$4,$5*
1,1,$1+$1,$6,$7*
1,1,$1+$1,$8,$9*
0 Add four rect primitives between the rounded corners*
20,1,$1+$1,$2,$3,$4,$5,0*
20,1,$1+$1,$4,$5,$6,$7,0*
20,1,$1+$1,$6,$7,$8,$9,0*
20,1,$1+$1,$8,$9,$2,$3,0*%
%AMFreePoly0*
4,1,37,0.603843,0.796157,0.639018,0.796157,0.711114,0.766294,0.766294,0.711114,0.796157,0.639018,0.796157,0.603843,0.800000,0.600000,0.800000,-0.600000,0.796157,-0.603843,0.796157,-0.639018,0.766294,-0.711114,0.711114,-0.766294,0.639018,-0.796157,0.603843,-0.796157,0.600000,-0.800000,0.000000,-0.800000,0.000000,-0.796148,-0.078414,-0.796148,-0.232228,-0.765552,-0.377117,-0.705537,
-0.507515,-0.618408,-0.618408,-0.507515,-0.705537,-0.377117,-0.765552,-0.232228,-0.796148,-0.078414,-0.796148,0.078414,-0.765552,0.232228,-0.705537,0.377117,-0.618408,0.507515,-0.507515,0.618408,-0.377117,0.705537,-0.232228,0.765552,-0.078414,0.796148,0.000000,0.796148,0.000000,0.800000,0.600000,0.800000,0.603843,0.796157,0.603843,0.796157,$1*%
%AMFreePoly1*
4,1,37,0.000000,0.796148,0.078414,0.796148,0.232228,0.765552,0.377117,0.705537,0.507515,0.618408,0.618408,0.507515,0.705537,0.377117,0.765552,0.232228,0.796148,0.078414,0.796148,-0.078414,0.765552,-0.232228,0.705537,-0.377117,0.618408,-0.507515,0.507515,-0.618408,0.377117,-0.705537,0.232228,-0.765552,0.078414,-0.796148,0.000000,-0.796148,0.000000,-0.800000,-0.600000,-0.800000,
-0.603843,-0.796157,-0.639018,-0.796157,-0.711114,-0.766294,-0.766294,-0.711114,-0.796157,-0.639018,-0.796157,-0.603843,-0.800000,-0.600000,-0.800000,0.600000,-0.796157,0.603843,-0.796157,0.639018,-0.766294,0.711114,-0.711114,0.766294,-0.639018,0.796157,-0.603843,0.796157,-0.600000,0.800000,0.000000,0.800000,0.000000,0.796148,0.000000,0.796148,$1*%
%AMFreePoly2*
4,1,23,0.500000,-0.750000,0.000000,-0.750000,0.000000,-0.745722,-0.065263,-0.745722,-0.191342,-0.711940,-0.304381,-0.646677,-0.396677,-0.554381,-0.461940,-0.441342,-0.495722,-0.315263,-0.495722,-0.250000,-0.500000,-0.250000,-0.500000,0.250000,-0.495722,0.250000,-0.495722,0.315263,-0.461940,0.441342,-0.396677,0.554381,-0.304381,0.646677,-0.191342,0.711940,-0.065263,0.745722,0.000000,0.745722,
0.000000,0.750000,0.500000,0.750000,0.500000,-0.750000,0.500000,-0.750000,$1*%
%AMFreePoly3*
4,1,23,0.000000,0.745722,0.065263,0.745722,0.191342,0.711940,0.304381,0.646677,0.396677,0.554381,0.461940,0.441342,0.495722,0.315263,0.495722,0.250000,0.500000,0.250000,0.500000,-0.250000,0.495722,-0.250000,0.495722,-0.315263,0.461940,-0.441342,0.396677,-0.554381,0.304381,-0.646677,0.191342,-0.711940,0.065263,-0.745722,0.000000,-0.745722,0.000000,-0.750000,-0.500000,-0.750000,
-0.500000,0.750000,0.000000,0.750000,0.000000,0.745722,0.000000,0.745722,$1*%
G04 Aperture macros list end*
%ADD10RoundRect,0.250000X-0.750000X0.600000X-0.750000X-0.600000X0.750000X-0.600000X0.750000X0.600000X0*%
%ADD11O,2.000000X1.700000*%
%ADD12RoundRect,0.250000X0.725000X-0.600000X0.725000X0.600000X-0.725000X0.600000X-0.725000X-0.600000X0*%
%ADD13O,1.950000X1.700000*%
%ADD14C,1.400000*%
%ADD15RoundRect,0.770000X-0.980000X-0.980000X0.980000X-0.980000X0.980000X0.980000X-0.980000X0.980000X0*%
%ADD16C,3.500000*%
%ADD17C,3.000000*%
%ADD18C,2.500000*%
%ADD19RoundRect,0.102000X-0.889000X0.889000X-0.889000X-0.889000X0.889000X-0.889000X0.889000X0.889000X0*%
%ADD20C,1.982000*%
%ADD21C,3.404000*%
%ADD22C,3.200000*%
%ADD23C,3.454400*%
%ADD24C,2.032000*%
%ADD25C,2.540000*%
%ADD26RoundRect,0.312500X-0.957500X-0.957500X0.957500X-0.957500X0.957500X0.957500X-0.957500X0.957500X0*%
%ADD27RoundRect,0.250000X-0.766000X-0.766000X0.766000X-0.766000X0.766000X0.766000X-0.766000X0.766000X0*%
%ADD28RoundRect,0.250000X-0.600000X-0.725000X0.600000X-0.725000X0.600000X0.725000X-0.600000X0.725000X0*%
%ADD29O,1.700000X1.950000*%
%ADD30RoundRect,0.249999X-0.850001X-0.850001X0.850001X-0.850001X0.850001X0.850001X-0.850001X0.850001X0*%
%ADD31C,2.200000*%
%ADD32C,1.850000*%
%ADD33RoundRect,0.200000X0.600000X0.600000X-0.600000X0.600000X-0.600000X-0.600000X0.600000X-0.600000X0*%
%ADD34C,1.600000*%
%ADD35FreePoly0,180.000000*%
%ADD36FreePoly1,180.000000*%
%ADD37C,1.734000*%
%ADD38C,1.712000*%
%ADD39RoundRect,0.250000X0.600000X0.725000X-0.600000X0.725000X-0.600000X-0.725000X0.600000X-0.725000X0*%
%ADD40RoundRect,0.249999X0.850001X0.850001X-0.850001X0.850001X-0.850001X-0.850001X0.850001X-0.850001X0*%
%ADD41FreePoly2,0.000000*%
%ADD42FreePoly3,0.000000*%
G04 APERTURE END LIST*
%TO.C,JP1*%
G36*
X83250000Y-73750000D02*
G01*
X83550000Y-73750000D01*
X83550000Y-72250000D01*
X83250000Y-72250000D01*
X83250000Y-73750000D01*
G37*
%TO.C,JP3*%
G36*
X83250000Y-80750000D02*
G01*
X83550000Y-80750000D01*
X83550000Y-79250000D01*
X83250000Y-79250000D01*
X83250000Y-80750000D01*
G37*
%TO.C,JP2*%
G36*
X89500000Y-77350000D02*
G01*
X89800000Y-77350000D01*
X89800000Y-75850000D01*
X89500000Y-75850000D01*
X89500000Y-77350000D01*
G37*
%TD*%
D10*
%TO.C,J2*%
X163750000Y-63250000D03*
D11*
X163750000Y-65750000D03*
%TD*%
D12*
%TO.C,J106*%
X62500000Y-105000000D03*
D13*
X62500000Y-102500000D03*
X62500000Y-100000000D03*
X62500000Y-97500000D03*
%TD*%
D12*
%TO.C,J301*%
X71500000Y-119000000D03*
D13*
X71500000Y-116500000D03*
X71500000Y-114000000D03*
%TD*%
D14*
%TO.C,J401*%
X87000000Y-43000000D03*
X98000000Y-43000000D03*
D15*
X95000000Y-53000000D03*
D16*
X90000000Y-53000000D03*
%TD*%
D12*
%TO.C,J302*%
X71475000Y-131000000D03*
D13*
X71475000Y-128500000D03*
X71475000Y-126000000D03*
%TD*%
D17*
%TO.C,K401*%
X75000000Y-60100000D03*
D18*
X81050000Y-58150000D03*
D17*
X81050000Y-45950000D03*
X69000000Y-45900000D03*
D18*
X69050000Y-58150000D03*
%TD*%
D19*
%TO.C,U102*%
X126387000Y-116340000D03*
D20*
X126387000Y-118880000D03*
X126387000Y-121420000D03*
X126387000Y-123960000D03*
X126387000Y-126500000D03*
X126387000Y-129040000D03*
X126387000Y-131580000D03*
X126387000Y-134120000D03*
X126387000Y-136660000D03*
D21*
X156105000Y-116340000D03*
X156105000Y-136660000D03*
%TD*%
D12*
%TO.C,J303*%
X62500000Y-119000000D03*
D13*
X62500000Y-116500000D03*
X62500000Y-114000000D03*
%TD*%
D22*
%TO.C,REF\u002A\u002A*%
X164500000Y-43250000D03*
%TD*%
D10*
%TO.C,J102*%
X163725000Y-54000000D03*
D11*
X163725000Y-56500000D03*
%TD*%
D23*
%TO.C,A601*%
X119978982Y-62432000D03*
X138520982Y-62432000D03*
D24*
X124169982Y-63321000D03*
D25*
X123992182Y-60400000D03*
D24*
X126709982Y-63321000D03*
D26*
X127497382Y-60400000D03*
D27*
X129249982Y-63321000D03*
D26*
X131002582Y-60400000D03*
D27*
X131789982Y-63321000D03*
D24*
X134329982Y-63321000D03*
D25*
X134507782Y-60400000D03*
%TD*%
D28*
%TO.C,J103*%
X62500000Y-73000000D03*
D29*
X65000000Y-73000000D03*
X67500000Y-73000000D03*
X70000000Y-73000000D03*
X72500000Y-73000000D03*
X75000000Y-73000000D03*
%TD*%
D12*
%TO.C,J107*%
X71500000Y-105000000D03*
D13*
X71500000Y-102500000D03*
X71500000Y-100000000D03*
X71500000Y-97500000D03*
%TD*%
D12*
%TO.C,J304*%
X62475000Y-131000000D03*
D13*
X62475000Y-128500000D03*
X62475000Y-126000000D03*
%TD*%
D22*
%TO.C,REF\u002A\u002A*%
X164500000Y-137500000D03*
%TD*%
%TO.C,REF\u002A\u002A*%
X61500000Y-137500000D03*
%TD*%
D30*
%TO.C,D401*%
X87340000Y-57825000D03*
D31*
X97500000Y-57825000D03*
%TD*%
%TO.C,A101*%
X95835000Y-136430000D03*
D32*
X95535000Y-133400000D03*
X90685000Y-133400000D03*
D31*
X90385000Y-136430000D03*
D33*
X102000000Y-136560000D03*
D34*
X102000000Y-134020000D03*
D35*
X102000000Y-131480000D03*
D34*
X102000000Y-128940000D03*
X102000000Y-126400000D03*
X102000000Y-123860000D03*
X102000000Y-121320000D03*
D35*
X102000000Y-118780000D03*
D34*
X102000000Y-116240000D03*
X102000000Y-113700000D03*
X102000000Y-111160000D03*
X102000000Y-108620000D03*
D35*
X102000000Y-106080000D03*
D34*
X102000000Y-103540000D03*
X102000000Y-101000000D03*
X102000000Y-98460000D03*
X102000000Y-95920000D03*
D35*
X102000000Y-93380000D03*
D34*
X102000000Y-90840000D03*
X102000000Y-88300000D03*
X84220000Y-88300000D03*
X84220000Y-90840000D03*
D36*
X84220000Y-93380000D03*
D34*
X84220000Y-95920000D03*
X84220000Y-98460000D03*
X84220000Y-101000000D03*
X84220000Y-103540000D03*
D36*
X84220000Y-106080000D03*
D34*
X84220000Y-108620000D03*
X84220000Y-111160000D03*
X84220000Y-113700000D03*
X84220000Y-116240000D03*
D36*
X84220000Y-118780000D03*
D34*
X84220000Y-121320000D03*
X84220000Y-123860000D03*
X84220000Y-126400000D03*
X84220000Y-128940000D03*
D36*
X84220000Y-131480000D03*
D34*
X84220000Y-134020000D03*
X84220000Y-136560000D03*
%TD*%
D31*
%TO.C,U101*%
X163835000Y-108160000D03*
X163835000Y-87840000D03*
X143515000Y-108160000D03*
X143515000Y-87840000D03*
D37*
X136149000Y-106890000D03*
X136149000Y-104350000D03*
X136149000Y-101810000D03*
X136149000Y-99270000D03*
X136149000Y-96730000D03*
X136149000Y-94190000D03*
X136149000Y-91650000D03*
X136149000Y-89110000D03*
%TD*%
D38*
%TO.C,SW101*%
X112000000Y-64325000D03*
X109500000Y-64325000D03*
X107000000Y-64325000D03*
%TD*%
D20*
%TO.C,U103*%
X111110000Y-91650000D03*
X111110000Y-94190000D03*
X111110000Y-96730000D03*
X111110000Y-99270000D03*
X111110000Y-101810000D03*
X111110000Y-104350000D03*
X128890000Y-91650000D03*
X128890000Y-94190000D03*
X128890000Y-96730000D03*
X128890000Y-99270000D03*
X128890000Y-101810000D03*
X128890000Y-104350000D03*
D21*
X128890000Y-87840000D03*
X128890000Y-108160000D03*
X111110000Y-87840000D03*
X111110000Y-108160000D03*
%TD*%
D39*
%TO.C,J1*%
X163750000Y-79000000D03*
D29*
X161250000Y-79000000D03*
X158750000Y-79000000D03*
X156250000Y-79000000D03*
X153750000Y-79000000D03*
X151250000Y-79000000D03*
%TD*%
D40*
%TO.C,D101*%
X114000000Y-58325000D03*
D31*
X103840000Y-58325000D03*
%TD*%
D12*
%TO.C,J104*%
X62500000Y-90500000D03*
D13*
X62500000Y-88000000D03*
X62500000Y-85500000D03*
X62500000Y-83000000D03*
%TD*%
D12*
%TO.C,J105*%
X71500000Y-90500000D03*
D13*
X71500000Y-88000000D03*
X71500000Y-85500000D03*
X71500000Y-83000000D03*
%TD*%
D22*
%TO.C,REF\u002A\u002A*%
X61500000Y-43250000D03*
%TD*%
D14*
%TO.C,J101*%
X104000000Y-43000000D03*
X115000000Y-43000000D03*
D15*
X112000000Y-53000000D03*
D16*
X107000000Y-53000000D03*
%TD*%
D41*
%TO.C,JP1*%
X82750000Y-73000000D03*
D42*
X84050000Y-73000000D03*
%TD*%
D41*
%TO.C,JP3*%
X82750000Y-80000000D03*
D42*
X84050000Y-80000000D03*
%TD*%
D41*
%TO.C,JP2*%
X89000000Y-76600000D03*
D42*
X90300000Y-76600000D03*
%TD*%
M02*
