%TF.GenerationSoftware,KiCad,Pcbnew,9.0.3*%
%TF.CreationDate,2026-04-12T23:49:22-04:00*%
%TF.ProjectId,Microtransat_mainboard,4d696372-6f74-4726-916e-7361745f6d61,rev?*%
%TF.SameCoordinates,Original*%
%TF.FileFunction,Soldermask,Top*%
%TF.FilePolarity,Negative*%
%FSLAX46Y46*%
G04 Gerber Fmt 4.6, Leading zero omitted, Abs format (unit mm)*
G04 Created by KiCad (PCBNEW 9.0.3) date 2026-04-12 23:49:22*
%MOMM*%
%LPD*%
G01*
G04 APERTURE LIST*
G04 Aperture macros list*
%AMRoundRect*
0 Rectangle with rounded corners*
0 $1 Rounding radius*
0 $2 $3 $4 $5 $6 $7 $8 $9 X,Y pos of 4 corners*
0 Add a 4 corners polygon primitive as box body*
4,1,4,$2,$3,$4,$5,$6,$7,$8,$9,$2,$3,0*
0 Add four circle primitives for the rounded corners*
1,1,$1+$1,$2,$3*
1,1,$1+$1,$4,$5*
1,1,$1+$1,$6,$7*
1,1,$1+$1,$8,$9*
0 Add four rect primitives between the rounded corners*
20,1,$1+$1,$2,$3,$4,$5,0*
20,1,$1+$1,$4,$5,$6,$7,0*
20,1,$1+$1,$6,$7,$8,$9,0*
20,1,$1+$1,$8,$9,$2,$3,0*%
%AMFreePoly0*
4,1,37,0.800000,0.796148,0.878414,0.796148,1.032228,0.765552,1.177117,0.705537,1.307515,0.618408,1.418408,0.507515,1.505537,0.377117,1.565552,0.232228,1.596148,0.078414,1.596148,-0.078414,1.565552,-0.232228,1.505537,-0.377117,1.418408,-0.507515,1.307515,-0.618408,1.177117,-0.705537,1.032228,-0.765552,0.878414,-0.796148,0.800000,-0.796148,0.800000,-0.800000,-1.400000,-0.800000,
-1.403843,-0.796157,-1.439018,-0.796157,-1.511114,-0.766294,-1.566294,-0.711114,-1.596157,-0.639018,-1.596157,-0.603843,-1.600000,-0.600000,-1.600000,0.600000,-1.596157,0.603843,-1.596157,0.639018,-1.566294,0.711114,-1.511114,0.766294,-1.439018,0.796157,-1.403843,0.796157,-1.400000,0.800000,0.800000,0.800000,0.800000,0.796148,0.800000,0.796148,$1*%
%AMFreePoly1*
4,1,37,1.403843,0.796157,1.439018,0.796157,1.511114,0.766294,1.566294,0.711114,1.596157,0.639018,1.596157,0.603843,1.600000,0.600000,1.600000,-0.600000,1.596157,-0.603843,1.596157,-0.639018,1.566294,-0.711114,1.511114,-0.766294,1.439018,-0.796157,1.403843,-0.796157,1.400000,-0.800000,-0.800000,-0.800000,-0.800000,-0.796148,-0.878414,-0.796148,-1.032228,-0.765552,-1.177117,-0.705537,
-1.307515,-0.618408,-1.418408,-0.507515,-1.505537,-0.377117,-1.565552,-0.232228,-1.596148,-0.078414,-1.596148,0.078414,-1.565552,0.232228,-1.505537,0.377117,-1.418408,0.507515,-1.307515,0.618408,-1.177117,0.705537,-1.032228,0.765552,-0.878414,0.796148,-0.800000,0.796148,-0.800000,0.800000,1.400000,0.800000,1.403843,0.796157,1.403843,0.796157,$1*%
%AMFreePoly2*
4,1,37,0.603843,0.796157,0.639018,0.796157,0.711114,0.766294,0.766294,0.711114,0.796157,0.639018,0.796157,0.603843,0.800000,0.600000,0.800000,-0.600000,0.796157,-0.603843,0.796157,-0.639018,0.766294,-0.711114,0.711114,-0.766294,0.639018,-0.796157,0.603843,-0.796157,0.600000,-0.800000,0.000000,-0.800000,0.000000,-0.796148,-0.078414,-0.796148,-0.232228,-0.765552,-0.377117,-0.705537,
-0.507515,-0.618408,-0.618408,-0.507515,-0.705537,-0.377117,-0.765552,-0.232228,-0.796148,-0.078414,-0.796148,0.078414,-0.765552,0.232228,-0.705537,0.377117,-0.618408,0.507515,-0.507515,0.618408,-0.377117,0.705537,-0.232228,0.765552,-0.078414,0.796148,0.000000,0.796148,0.000000,0.800000,0.600000,0.800000,0.603843,0.796157,0.603843,0.796157,$1*%
%AMFreePoly3*
4,1,37,0.000000,0.796148,0.078414,0.796148,0.232228,0.765552,0.377117,0.705537,0.507515,0.618408,0.618408,0.507515,0.705537,0.377117,0.765552,0.232228,0.796148,0.078414,0.796148,-0.078414,0.765552,-0.232228,0.705537,-0.377117,0.618408,-0.507515,0.507515,-0.618408,0.377117,-0.705537,0.232228,-0.765552,0.078414,-0.796148,0.000000,-0.796148,0.000000,-0.800000,-0.600000,-0.800000,
-0.603843,-0.796157,-0.639018,-0.796157,-0.711114,-0.766294,-0.766294,-0.711114,-0.796157,-0.639018,-0.796157,-0.603843,-0.800000,-0.600000,-0.800000,0.600000,-0.796157,0.603843,-0.796157,0.639018,-0.766294,0.711114,-0.711114,0.766294,-0.639018,0.796157,-0.603843,0.796157,-0.600000,0.800000,0.000000,0.800000,0.000000,0.796148,0.000000,0.796148,$1*%
G04 Aperture macros list end*
%ADD10RoundRect,0.051250X-0.733750X-0.153750X0.733750X-0.153750X0.733750X0.153750X-0.733750X0.153750X0*%
%ADD11RoundRect,0.250000X-0.750000X0.600000X-0.750000X-0.600000X0.750000X-0.600000X0.750000X0.600000X0*%
%ADD12O,2.000000X1.700000*%
%ADD13RoundRect,0.250000X0.725000X-0.600000X0.725000X0.600000X-0.725000X0.600000X-0.725000X-0.600000X0*%
%ADD14O,1.950000X1.700000*%
%ADD15C,1.400000*%
%ADD16RoundRect,0.770000X-0.980000X-0.980000X0.980000X-0.980000X0.980000X0.980000X-0.980000X0.980000X0*%
%ADD17C,3.500000*%
%ADD18RoundRect,0.250001X0.462499X0.624999X-0.462499X0.624999X-0.462499X-0.624999X0.462499X-0.624999X0*%
%ADD19C,3.000000*%
%ADD20C,2.500000*%
%ADD21RoundRect,0.102000X-0.889000X0.889000X-0.889000X-0.889000X0.889000X-0.889000X0.889000X0.889000X0*%
%ADD22C,1.982000*%
%ADD23C,3.404000*%
%ADD24RoundRect,0.250000X-0.400000X-0.625000X0.400000X-0.625000X0.400000X0.625000X-0.400000X0.625000X0*%
%ADD25RoundRect,0.250000X0.400000X0.625000X-0.400000X0.625000X-0.400000X-0.625000X0.400000X-0.625000X0*%
%ADD26C,3.200000*%
%ADD27RoundRect,0.250001X-0.462499X-0.624999X0.462499X-0.624999X0.462499X0.624999X-0.462499X0.624999X0*%
%ADD28C,3.454400*%
%ADD29C,2.032000*%
%ADD30C,2.540000*%
%ADD31RoundRect,0.312500X-0.957500X-0.957500X0.957500X-0.957500X0.957500X0.957500X-0.957500X0.957500X0*%
%ADD32RoundRect,0.250000X-0.766000X-0.766000X0.766000X-0.766000X0.766000X0.766000X-0.766000X0.766000X0*%
%ADD33RoundRect,0.250000X-0.625000X0.400000X-0.625000X-0.400000X0.625000X-0.400000X0.625000X0.400000X0*%
%ADD34RoundRect,0.250000X-0.600000X-0.725000X0.600000X-0.725000X0.600000X0.725000X-0.600000X0.725000X0*%
%ADD35O,1.700000X1.950000*%
%ADD36RoundRect,0.249999X-0.850001X-0.850001X0.850001X-0.850001X0.850001X0.850001X-0.850001X0.850001X0*%
%ADD37C,2.200000*%
%ADD38RoundRect,0.250000X-0.650000X0.412500X-0.650000X-0.412500X0.650000X-0.412500X0.650000X0.412500X0*%
%ADD39C,1.850000*%
%ADD40FreePoly0,180.000000*%
%ADD41RoundRect,0.200000X0.600000X0.600000X-0.600000X0.600000X-0.600000X-0.600000X0.600000X-0.600000X0*%
%ADD42RoundRect,0.800000X0.800000X0.000010X-0.800000X0.000010X-0.800000X-0.000010X0.800000X-0.000010X0*%
%ADD43C,1.600000*%
%ADD44FreePoly1,180.000000*%
%ADD45FreePoly2,180.000000*%
%ADD46FreePoly3,180.000000*%
%ADD47RoundRect,0.250000X0.625000X-0.400000X0.625000X0.400000X-0.625000X0.400000X-0.625000X-0.400000X0*%
%ADD48C,1.734000*%
%ADD49C,1.712000*%
%ADD50RoundRect,0.250000X0.600000X0.725000X-0.600000X0.725000X-0.600000X-0.725000X0.600000X-0.725000X0*%
%ADD51RoundRect,0.249999X0.850001X0.850001X-0.850001X0.850001X-0.850001X-0.850001X0.850001X-0.850001X0*%
%ADD52RoundRect,0.250000X-0.412500X-0.650000X0.412500X-0.650000X0.412500X0.650000X-0.412500X0.650000X0*%
G04 APERTURE END LIST*
D10*
%TO.C,Logic_Shifter201*%
X144130000Y-64225000D03*
X144130000Y-64875000D03*
X144130000Y-65525000D03*
X144130000Y-66175000D03*
X144130000Y-66825000D03*
X144130000Y-67475000D03*
X144130000Y-68125000D03*
X144130000Y-68775000D03*
X149870000Y-68775000D03*
X149870000Y-68125000D03*
X149870000Y-67475000D03*
X149870000Y-66825000D03*
X149870000Y-66175000D03*
X149870000Y-65525000D03*
X149870000Y-64875000D03*
X149870000Y-64225000D03*
%TD*%
D11*
%TO.C,J2*%
X163750000Y-63250000D03*
D12*
X163750000Y-65750000D03*
%TD*%
D13*
%TO.C,J106*%
X62500000Y-105000000D03*
D14*
X62500000Y-102500000D03*
X62500000Y-100000000D03*
X62500000Y-97500000D03*
%TD*%
D13*
%TO.C,J301*%
X71500000Y-119000000D03*
D14*
X71500000Y-116500000D03*
X71500000Y-114000000D03*
%TD*%
D15*
%TO.C,J401*%
X87000000Y-43000000D03*
X98000000Y-43000000D03*
D16*
X95000000Y-53000000D03*
D17*
X90000000Y-53000000D03*
%TD*%
D13*
%TO.C,J302*%
X71475000Y-131000000D03*
D14*
X71475000Y-128500000D03*
X71475000Y-126000000D03*
%TD*%
D18*
%TO.C,D203*%
X150987500Y-49750000D03*
X148012500Y-49750000D03*
%TD*%
D19*
%TO.C,K401*%
X75000000Y-60100000D03*
D20*
X81050000Y-58150000D03*
D19*
X81050000Y-45950000D03*
X69000000Y-45900000D03*
D20*
X69050000Y-58150000D03*
%TD*%
D21*
%TO.C,U102*%
X126387000Y-116340000D03*
D22*
X126387000Y-118880000D03*
X126387000Y-121420000D03*
X126387000Y-123960000D03*
X126387000Y-126500000D03*
X126387000Y-129040000D03*
X126387000Y-131580000D03*
X126387000Y-134120000D03*
X126387000Y-136660000D03*
D23*
X156105000Y-116340000D03*
X156105000Y-136660000D03*
%TD*%
D24*
%TO.C,R201*%
X153750000Y-43250000D03*
X156850000Y-43250000D03*
%TD*%
D25*
%TO.C,R103*%
X105150000Y-70000000D03*
X102050000Y-70000000D03*
%TD*%
D13*
%TO.C,J303*%
X62500000Y-119000000D03*
D14*
X62500000Y-116500000D03*
X62500000Y-114000000D03*
%TD*%
D26*
%TO.C,REF\u002A\u002A*%
X164500000Y-43250000D03*
%TD*%
D11*
%TO.C,J102*%
X163725000Y-54000000D03*
D12*
X163725000Y-56500000D03*
%TD*%
D27*
%TO.C,D102*%
X107912500Y-70000000D03*
X110887500Y-70000000D03*
%TD*%
D28*
%TO.C,A601*%
X119978982Y-62432000D03*
X138520982Y-62432000D03*
D29*
X124169982Y-63321000D03*
D30*
X123992182Y-60400000D03*
D29*
X126709982Y-63321000D03*
D31*
X127497382Y-60400000D03*
D32*
X129249982Y-63321000D03*
D31*
X131002582Y-60400000D03*
D32*
X131789982Y-63321000D03*
D29*
X134329982Y-63321000D03*
D30*
X134507782Y-60400000D03*
%TD*%
D18*
%TO.C,D204*%
X150975000Y-53000000D03*
X148000000Y-53000000D03*
%TD*%
D24*
%TO.C,R204*%
X153750000Y-53000000D03*
X156850000Y-53000000D03*
%TD*%
D18*
%TO.C,D201*%
X150975000Y-43250000D03*
X148000000Y-43250000D03*
%TD*%
D33*
%TO.C,R102*%
X88500000Y-62825000D03*
X88500000Y-65925000D03*
%TD*%
D34*
%TO.C,J103*%
X62500000Y-73000000D03*
D35*
X65000000Y-73000000D03*
X67500000Y-73000000D03*
X70000000Y-73000000D03*
X72500000Y-73000000D03*
X75000000Y-73000000D03*
%TD*%
D24*
%TO.C,R401*%
X74850000Y-64800000D03*
X77950000Y-64800000D03*
%TD*%
%TO.C,R202*%
X153750000Y-46500000D03*
X156850000Y-46500000D03*
%TD*%
D18*
%TO.C,D202*%
X150975000Y-46500000D03*
X148000000Y-46500000D03*
%TD*%
%TO.C,D2*%
X150975000Y-59500000D03*
X148000000Y-59500000D03*
%TD*%
D13*
%TO.C,J107*%
X71500000Y-105000000D03*
D14*
X71500000Y-102500000D03*
X71500000Y-100000000D03*
X71500000Y-97500000D03*
%TD*%
D13*
%TO.C,J304*%
X62475000Y-131000000D03*
D14*
X62475000Y-128500000D03*
X62475000Y-126000000D03*
%TD*%
D26*
%TO.C,REF\u002A\u002A*%
X164500000Y-137500000D03*
%TD*%
D24*
%TO.C,R203*%
X153750000Y-49750000D03*
X156850000Y-49750000D03*
%TD*%
%TO.C,R2*%
X153700000Y-59500000D03*
X156800000Y-59500000D03*
%TD*%
D26*
%TO.C,REF\u002A\u002A*%
X61500000Y-137500000D03*
%TD*%
D36*
%TO.C,D401*%
X87340000Y-57825000D03*
D37*
X97500000Y-57825000D03*
%TD*%
D38*
%TO.C,C201*%
X144200000Y-71437500D03*
X144200000Y-74562500D03*
%TD*%
D37*
%TO.C,A101*%
X95835000Y-136430000D03*
D39*
X95535000Y-133400000D03*
X90685000Y-133400000D03*
D37*
X90385000Y-136430000D03*
D40*
X102800000Y-136560000D03*
D41*
X102000000Y-136560000D03*
D42*
X102800000Y-134020000D03*
D43*
X102000000Y-134020000D03*
D44*
X102800000Y-131480000D03*
D45*
X102000000Y-131480000D03*
D42*
X102800000Y-128940000D03*
D43*
X102000000Y-128940000D03*
D42*
X102800000Y-126400000D03*
D43*
X102000000Y-126400000D03*
D42*
X102800000Y-123860000D03*
D43*
X102000000Y-123860000D03*
D42*
X102800000Y-121320000D03*
D43*
X102000000Y-121320000D03*
D44*
X102800000Y-118780000D03*
D45*
X102000000Y-118780000D03*
D42*
X102800000Y-116240000D03*
D43*
X102000000Y-116240000D03*
D42*
X102800000Y-113700000D03*
D43*
X102000000Y-113700000D03*
D42*
X102800000Y-111160000D03*
D43*
X102000000Y-111160000D03*
D42*
X102800000Y-108620000D03*
D43*
X102000000Y-108620000D03*
D44*
X102800000Y-106080000D03*
D45*
X102000000Y-106080000D03*
D42*
X102800000Y-103540000D03*
D43*
X102000000Y-103540000D03*
D42*
X102800000Y-101000000D03*
D43*
X102000000Y-101000000D03*
D42*
X102800000Y-98460000D03*
D43*
X102000000Y-98460000D03*
D42*
X102800000Y-95920000D03*
D43*
X102000000Y-95920000D03*
D44*
X102800000Y-93380000D03*
D45*
X102000000Y-93380000D03*
D42*
X102800000Y-90840000D03*
D43*
X102000000Y-90840000D03*
D42*
X102800000Y-88300000D03*
D43*
X102000000Y-88300000D03*
X84220000Y-88300000D03*
D42*
X83420000Y-88300000D03*
D43*
X84220000Y-90840000D03*
D42*
X83420000Y-90840000D03*
D46*
X84220000Y-93380000D03*
D40*
X83420000Y-93380000D03*
D43*
X84220000Y-95920000D03*
D42*
X83420000Y-95920000D03*
D43*
X84220000Y-98460000D03*
D42*
X83420000Y-98460000D03*
D43*
X84220000Y-101000000D03*
D42*
X83420000Y-101000000D03*
D43*
X84220000Y-103540000D03*
D42*
X83420000Y-103540000D03*
D46*
X84220000Y-106080000D03*
D40*
X83420000Y-106080000D03*
D43*
X84220000Y-108620000D03*
D42*
X83420000Y-108620000D03*
D43*
X84220000Y-111160000D03*
D42*
X83420000Y-111160000D03*
D43*
X84220000Y-113700000D03*
D42*
X83420000Y-113700000D03*
D43*
X84220000Y-116240000D03*
D42*
X83420000Y-116240000D03*
D46*
X84220000Y-118780000D03*
D40*
X83420000Y-118780000D03*
D43*
X84220000Y-121320000D03*
D42*
X83420000Y-121320000D03*
D43*
X84220000Y-123860000D03*
D42*
X83420000Y-123860000D03*
D43*
X84220000Y-126400000D03*
D42*
X83420000Y-126400000D03*
D43*
X84220000Y-128940000D03*
D42*
X83420000Y-128940000D03*
D46*
X84220000Y-131480000D03*
D40*
X83420000Y-131480000D03*
D43*
X84220000Y-134020000D03*
D42*
X83420000Y-134020000D03*
D43*
X84220000Y-136560000D03*
D42*
X83420000Y-136560000D03*
%TD*%
D47*
%TO.C,R101*%
X97500000Y-65925000D03*
X97500000Y-62825000D03*
%TD*%
D38*
%TO.C,C101*%
X93000000Y-62825000D03*
X93000000Y-65950000D03*
%TD*%
D37*
%TO.C,U101*%
X163835000Y-108160000D03*
X163835000Y-87840000D03*
X143515000Y-108160000D03*
X143515000Y-87840000D03*
D48*
X136149000Y-106890000D03*
X136149000Y-104350000D03*
X136149000Y-101810000D03*
X136149000Y-99270000D03*
X136149000Y-96730000D03*
X136149000Y-94190000D03*
X136149000Y-91650000D03*
X136149000Y-89110000D03*
%TD*%
D24*
%TO.C,R1*%
X153750000Y-56250000D03*
X156850000Y-56250000D03*
%TD*%
D49*
%TO.C,SW101*%
X112000000Y-64325000D03*
X109500000Y-64325000D03*
X107000000Y-64325000D03*
%TD*%
D22*
%TO.C,U103*%
X111110000Y-91650000D03*
X111110000Y-94190000D03*
X111110000Y-96730000D03*
X111110000Y-99270000D03*
X111110000Y-101810000D03*
X111110000Y-104350000D03*
X128890000Y-91650000D03*
X128890000Y-94190000D03*
X128890000Y-96730000D03*
X128890000Y-99270000D03*
X128890000Y-101810000D03*
X128890000Y-104350000D03*
D23*
X128890000Y-87840000D03*
X128890000Y-108160000D03*
X111110000Y-87840000D03*
X111110000Y-108160000D03*
%TD*%
D50*
%TO.C,J1*%
X163750000Y-79000000D03*
D35*
X161250000Y-79000000D03*
X158750000Y-79000000D03*
X156250000Y-79000000D03*
X153750000Y-79000000D03*
X151250000Y-79000000D03*
%TD*%
D51*
%TO.C,D101*%
X114000000Y-58325000D03*
D37*
X103840000Y-58325000D03*
%TD*%
D13*
%TO.C,J104*%
X62500000Y-90500000D03*
D14*
X62500000Y-88000000D03*
X62500000Y-85500000D03*
X62500000Y-83000000D03*
%TD*%
D18*
%TO.C,D1*%
X150975000Y-56250000D03*
X148000000Y-56250000D03*
%TD*%
D13*
%TO.C,J105*%
X71500000Y-90500000D03*
D14*
X71500000Y-88000000D03*
X71500000Y-85500000D03*
X71500000Y-83000000D03*
%TD*%
D26*
%TO.C,REF\u002A\u002A*%
X61500000Y-43250000D03*
%TD*%
D15*
%TO.C,J101*%
X104000000Y-43000000D03*
X115000000Y-43000000D03*
D16*
X112000000Y-53000000D03*
D17*
X107000000Y-53000000D03*
%TD*%
D52*
%TO.C,C202*%
X153637500Y-64800000D03*
X156762500Y-64800000D03*
%TD*%
M02*
