%TF.GenerationSoftware,KiCad,Pcbnew,9.0.3*%
%TF.CreationDate,2026-04-12T23:49:22-04:00*%
%TF.ProjectId,Microtransat_mainboard,4d696372-6f74-4726-916e-7361745f6d61,rev?*%
%TF.SameCoordinates,Original*%
%TF.FileFunction,Paste,Top*%
%TF.FilePolarity,Positive*%
%FSLAX46Y46*%
G04 Gerber Fmt 4.6, Leading zero omitted, Abs format (unit mm)*
G04 Created by KiCad (PCBNEW 9.0.3) date 2026-04-12 23:49:22*
%MOMM*%
%LPD*%
G01*
G04 APERTURE LIST*
G04 Aperture macros list*
%AMRoundRect*
0 Rectangle with rounded corners*
0 $1 Rounding radius*
0 $2 $3 $4 $5 $6 $7 $8 $9 X,Y pos of 4 corners*
0 Add a 4 corners polygon primitive as box body*
4,1,4,$2,$3,$4,$5,$6,$7,$8,$9,$2,$3,0*
0 Add four circle primitives for the rounded corners*
1,1,$1+$1,$2,$3*
1,1,$1+$1,$4,$5*
1,1,$1+$1,$6,$7*
1,1,$1+$1,$8,$9*
0 Add four rect primitives between the rounded corners*
20,1,$1+$1,$2,$3,$4,$5,0*
20,1,$1+$1,$4,$5,$6,$7,0*
20,1,$1+$1,$6,$7,$8,$9,0*
20,1,$1+$1,$8,$9,$2,$3,0*%
G04 Aperture macros list end*
%ADD10RoundRect,0.051250X-0.733750X-0.153750X0.733750X-0.153750X0.733750X0.153750X-0.733750X0.153750X0*%
%ADD11RoundRect,0.250001X0.462499X0.624999X-0.462499X0.624999X-0.462499X-0.624999X0.462499X-0.624999X0*%
%ADD12RoundRect,0.250000X-0.400000X-0.625000X0.400000X-0.625000X0.400000X0.625000X-0.400000X0.625000X0*%
%ADD13RoundRect,0.250000X0.400000X0.625000X-0.400000X0.625000X-0.400000X-0.625000X0.400000X-0.625000X0*%
%ADD14RoundRect,0.250001X-0.462499X-0.624999X0.462499X-0.624999X0.462499X0.624999X-0.462499X0.624999X0*%
%ADD15RoundRect,0.250000X-0.625000X0.400000X-0.625000X-0.400000X0.625000X-0.400000X0.625000X0.400000X0*%
%ADD16RoundRect,0.250000X-0.650000X0.412500X-0.650000X-0.412500X0.650000X-0.412500X0.650000X0.412500X0*%
%ADD17RoundRect,0.250000X0.625000X-0.400000X0.625000X0.400000X-0.625000X0.400000X-0.625000X-0.400000X0*%
%ADD18RoundRect,0.250000X-0.412500X-0.650000X0.412500X-0.650000X0.412500X0.650000X-0.412500X0.650000X0*%
G04 APERTURE END LIST*
D10*
%TO.C,Logic_Shifter201*%
X144130000Y-64225000D03*
X144130000Y-64875000D03*
X144130000Y-65525000D03*
X144130000Y-66175000D03*
X144130000Y-66825000D03*
X144130000Y-67475000D03*
X144130000Y-68125000D03*
X144130000Y-68775000D03*
X149870000Y-68775000D03*
X149870000Y-68125000D03*
X149870000Y-67475000D03*
X149870000Y-66825000D03*
X149870000Y-66175000D03*
X149870000Y-65525000D03*
X149870000Y-64875000D03*
X149870000Y-64225000D03*
%TD*%
D11*
%TO.C,D203*%
X150987500Y-49750000D03*
X148012500Y-49750000D03*
%TD*%
D12*
%TO.C,R201*%
X153750000Y-43250000D03*
X156850000Y-43250000D03*
%TD*%
D13*
%TO.C,R103*%
X105150000Y-70000000D03*
X102050000Y-70000000D03*
%TD*%
D14*
%TO.C,D102*%
X107912500Y-70000000D03*
X110887500Y-70000000D03*
%TD*%
D11*
%TO.C,D204*%
X150975000Y-53000000D03*
X148000000Y-53000000D03*
%TD*%
D12*
%TO.C,R204*%
X153750000Y-53000000D03*
X156850000Y-53000000D03*
%TD*%
D11*
%TO.C,D201*%
X150975000Y-43250000D03*
X148000000Y-43250000D03*
%TD*%
D15*
%TO.C,R102*%
X88500000Y-62825000D03*
X88500000Y-65925000D03*
%TD*%
D12*
%TO.C,R401*%
X74850000Y-64800000D03*
X77950000Y-64800000D03*
%TD*%
%TO.C,R202*%
X153750000Y-46500000D03*
X156850000Y-46500000D03*
%TD*%
D11*
%TO.C,D202*%
X150975000Y-46500000D03*
X148000000Y-46500000D03*
%TD*%
%TO.C,D2*%
X150975000Y-59500000D03*
X148000000Y-59500000D03*
%TD*%
D12*
%TO.C,R203*%
X153750000Y-49750000D03*
X156850000Y-49750000D03*
%TD*%
%TO.C,R2*%
X153700000Y-59500000D03*
X156800000Y-59500000D03*
%TD*%
D16*
%TO.C,C201*%
X144200000Y-71437500D03*
X144200000Y-74562500D03*
%TD*%
D17*
%TO.C,R101*%
X97500000Y-65925000D03*
X97500000Y-62825000D03*
%TD*%
D16*
%TO.C,C101*%
X93000000Y-62825000D03*
X93000000Y-65950000D03*
%TD*%
D12*
%TO.C,R1*%
X153750000Y-56250000D03*
X156850000Y-56250000D03*
%TD*%
D11*
%TO.C,D1*%
X150975000Y-56250000D03*
X148000000Y-56250000D03*
%TD*%
D18*
%TO.C,C202*%
X153637500Y-64800000D03*
X156762500Y-64800000D03*
%TD*%
M02*
